<svg viewBox="0 0 354.721 357.5478260869565" xmlns="http://www.w3.org/2000/svg" version="1.2" style="max-height: 500px" width="354.721" height="357.5478260869565"><style>.a{fill:#1d4688}.b{fill:#ed1c24}</style><path d="m451.4 266.4l-10.7-47.5q12.9 11.4 32 18.5 19.1 7.1 36.2 7.7 31.3-1.3 33.9-21.6 0-13.6-10.2-20.9-10.1-7.4-32.7-18-28.8-13.2-42.2-29.6-13.4-16.4-13.4-43.3 1.6-18.3 12.3-31.4 10.8-13.1 28.8-20 17.9-6.8 40.3-6.8 27.3 0 53.3 9.5v38.5q-24.6-15.3-45.5-15.3-23.8 0-28.5 21.6 0.3 8.3 6.9 13.7 6.7 5.4 16.1 9.5 9.5 4.1 20.6 8.9 14.2 7 26.3 16 12 9 19.8 21.8 7.9 12.8 7.9 29.4 0 4.7-0.4 7.3-2.4 23.3-15.6 37.6-13.2 14.3-32.3 20.4-19 6.1-40.6 6.1-17.1-0.5-34.1-3.9-17-3.3-28.2-8.2zm160.9-141.9v-1.3h44.8q14.4 0 21.7-4.6h1v98.4q0 27.5 18.4 27.5 19.7 0 19.7-26.9v-64.3q0-9.3-2-16-1.9-6.7-9.3-12.8v-1.3h44.6q12.6 0 21.6-4.6h0.7v122.6q0 13.6 1.8 19.1 1.7 5.6 9.5 12.4v1.2h-66.9v-17.3q-15.6 21.9-42.9 21.9-19.4 0-33-9.1-10.6-6.7-14.4-16.4-3.7-9.7-3.7-23.2v-73.2q0-10.7-2.1-18.6-2-7.9-9.5-13.5zm197.1 188.3v-150.1q0-16.3-1.8-24.3-1.7-8-8.9-13.9v-1.3h41q10.1 0 14.9-1 4.9-1 9.7-3.6h1.3v20.6q5.4-8.7 16.3-14.3 10.9-5.6 25.7-5.6 20.4 0 35.6 9.5 15.2 9.6 23.5 26.7 8.3 17.1 8.4 38.7 0 23.2-8.2 41.8-8.2 18.6-21.9 29.1-18.4 13.4-44.2 13.4-4.8 0-16.5-1.3l-11.9-30.2q1.9 0.3 5.5 0.7 3.7 0.3 5.1 0.7 17.2-0.6 24.4-12.5 7.3-11.9 7.3-33.6 0-20.2-5.8-34.7-5.7-14.6-20-15-23.3 0-23.3 31.5v120q0 11.8 0.6 17.5 0.5 5.8 2.8 10.4 2.4 4.6 7.9 9v0.6l-78.2 0.7v-1.3q6.3-5.6 8.5-11.7 2.2-6 2.2-16.5zm195.1-69.6v-92.5q0-9.8-2.4-15.5-2.4-5.8-8.6-10.7v-0.7h38.8q11 0 15.8-0.8 4.8-0.9 11.4-4.4h1.2v23.8q1.1-6.9 9.5-14.7 8.4-7.8 24.5-7.8 8 0 12.6 0.7v39.6q-9-2-14.6-2-12.6 0-22.3 5.3-9.7 5.3-9.7 15.9v58.9q0 16.5 1.6 22.3 1.6 5.9 9.1 12.7v0.6h-77.9v-0.6q7.4-5.9 9.2-12.3 1.8-6.5 1.8-17.8z" class="a" fill-rule="evenodd"/><path d="m1102.1 231.8q0-20.2 11.9-30.4 11.9-10.3 29-14.8 17-4.6 32.1-9 15.1-4.3 15.1-12.3 0-7-6.5-10.8-6.5-3.8-14.1-3.8-17.9 0-40.4 10.1l15.9-37.6q16.5-3.9 35.1-3.9 32.9 0 50.2 12.6 17.3 12.7 17.3 41.7v42.8q0 17.4 6.1 24.8 6.1 7.4 21.1 7.9l-13.3 27.5q-7.7 1.2-15.1 1.2-13.3 0-26.3-4.9-13-4.9-21.5-15.6-8.5-10.7-8.5-26.9v-26.8q-17.1 7.4-22.6 12.5-5.4 5.1-5.4 13.7 0 7.4 5.2 13.4 5.2 6.1 14.1 6.5 5.2-1.2 6.5-1.2l-13.9 28.7q-10.3 1.3-17.1 1.3-23.1 0-39-11.4-15.9-11.3-15.9-35.3z" class="a"/><path d="m1312.3 54.1q12.9 0 21.7 9.2 8.7 9.2 8.7 22.2 0 12.9-9.2 21.8-9.2 8.9-21.8 8.9-8.3 0-15.3-4-7-4.1-11-11.2-4.1-7.1-4.1-15.5 0-13 9.1-22.2 9-9.2 21.9-9.2zm-25.7 237.8v-138.6q0-20-13.9-29.5v-0.6h39.6q12.5 0 18-0.8 5.5-0.9 11.1-4.5h0.7v163.5q0 26.9-11.9 38.7-9.6 9.7-28.5 16.3-18.9 6.5-39 6.5 9.7-10.7 13.8-16 4.1-5.3 7.1-13.9 2.9-8.6 3-21.1zm111.7-237.8q8 0 15 4.2 7.1 4.3 11.2 11.5 4.2 7.1 4.2 15.7 0 8.7-4.2 15.8-4.2 7.2-11.1 11.4-7 4.2-15.1 4.2-12.8 0-21.9-9.2-9.1-9.2-9.1-22.2 0-13 9.1-22.2 9-9.2 21.9-9.2zm-26.5 189.1v-91.9q0-10.4-2.5-16-2.5-5.6-8.1-10.8v-1.3h39.1q10.3 0 15.8-0.8 5.5-0.8 10.6-3.8h1.4v125.9q0 10.7 2.2 16.7 2.2 5.9 9 11.5v1.2h-78.8v-1.2q7.6-6.4 9.5-12.8 1.8-6.3 1.8-16.7z" class="a" fill-rule="evenodd"/><path d="m1457.4 232.4v-78.5h-19.4v-23.2q14.1-1.4 25.9-9.5 11.7-8.2 18.8-20.3 7-12 8.3-24.5h22v46.8h35.9v40.2h-1.3q-5.3-6.1-7.9-7.8-2.5-1.7-10.8-1.7h-15.9v67q0 13 8.1 19.9 8.1 6.9 27.8 6.9l-14.5 28.2q-16.1 1.9-26.6 1.9-9 0-23.2-3.2-14-4-20.6-14.2-6.6-10.1-6.6-28z" class="a"/><path d="m182.4 355.8l-2.8 0.1h-5.9-1.1l-1.3-0.1h-1.1l-1.8-0.1h-1.6l-2.1-0.1-0.8-0.1-3.3-0.2-3.7-0.4-4.9-0.7-5.4-0.8-5.8-1.1-5.7-1.3-5.7-1.5-2.6-0.8-4.3-1.4-5.6-1.9-2.4-0.9-5.3-2.1-0.7-0.3v-0.1-0.1h0.1l0.3-0.1 4.4-1.3 5.7-1.6 5.6-1.8 5.6-2 4.6-1.6 5.6-2.1 5.4-2.2 1-0.4 1.8-0.8 5.4-2.5 4.5-2 3.6-1.8 1.4-0.7 1.6-0.9 5.2-2.8 4.9-2.9 5.1-3.1 3.6-2.3 1.7-1.2 4.9-3.5 0.7-0.6 2-1.6 3.7-3 3.4-2.8 1.6-1.6 2-1.8 1-1 3.9-3.9 2.6-2.9 3.9-4.6 1.9-2.5 1.2-1.7 2.5-3.5 2.2-3.6 1.2-1.9 1.3-2.6 2.3-4.4 0.6-1.3 2.3-5.5 1.3-3.5 0.7-2.3 0.9-3.2 1.4-5.9 0.7-3.8 0.3-1.9 0.4-3.4 0.3-4.5 0.1-1.8v-6l-0.1-1.9-0.1-1.6-0.3-3.4-0.8-5.8-0.4-2.1-1.2-5.3-0.6-2.6-0.9-2.4-1.2-3.2-0.4-1-1.3-2.7-0.6-1.4-0.7-1.2-1.9-3.2-1.9-2.7-1.9-2.6-1.5-1.9-2.1-2.3-2.3-2.2-3.9-3.1-2.7-1.8-0.7-0.5-1.5-0.8-1.6-0.8-1.8-0.9-0.7-0.2-1.5-0.6-2.1-0.7-1.6-0.4-1.7-0.3-2.8-0.4h-3.5l-1.5 0.1-1.5 0.2-3 0.7-1.5 0.5-3 1.3-1.2 0.6-0.9 0.6-0.6 0.4-0.1 0.2h0.4l0.7 0.1h0.8 0.4l0.5 0.3h0.5l0.3 0.1 0.2 0.1 3.5-0.3 2.9-0.1 2.6 0.1 1.8 0.2 0.6 0.1 0.9 0.1 3.5 0.8 1.4 0.4 3.1 1.1 3.1 1.5 2.4 1.4 1.8 1.2 2.7 2.3 0.4 0.4 0.5 0.4 1 1 0.9 1 0.8 0.8 1.6 2 1.5 2.1 2.7 4.4 0.8 1.9 1.5 3.3 1.5 4.3 0.5 1.9 1.1 4.9 0.6 4.5 0.4 4.9v4 0.8l-0.1 2-0.5 5.1-0.2 1.6-0.7 3.9-0.6 2.9-1.2 4.6-1 3.4-0.9 2.6-0.7 1.7-1.4 3.6-2.3 4.9-2.9 5.3-1.7 2.9-2 2.8-1.9 2.8-1.8 2.3-0.9 1.2-1.6 1.9-0.8 0.9-3.3 3.4-0.9 0.9-1.2 1.1-1.3 1.1-3.5 3.3-1.5 1.4-1 1.6-0.2 0.4-0.3 0.5-0.5 0.9-1.7 2.9-0.9 1.6-0.1 0.4-0.1 0.2-1.3 0.8-0.5 0.3-1.2 1-0.6 0.4-1.1 0.8-0.4 0.2-1 0.7-0.6 0.4-0.6 0.5-0.9 0.6-1.8 1.3-1 0.6-0.4 0.3-2.5 1.7-0.7 0.4-0.4 0.3-1.9 1.3-0.6 0.3-0.9 0.6-2.6 1.7-1.1 0.6-0.8 0.5-4.1 2.4-4.3 2.5-0.9 0.5-0.5 0.3-2.5 1.3-1.6 0.5-1.6 0.4-1.6 0.3-0.4 0.2h-0.2-0.4l-0.8 0.1-1.1 0.2-0.8 0.2-1 0.3-3.2 1.8-1.5 0.7h-0.3-0.1l-0.1-0.1-0.4-0.6-0.2-0.3-0.2-0.2h-0.1-0.1l-3 1.5-2 1-1.9 1-1.1 0.6h-0.3-0.1l-0.2-0.3-0.3-0.5-0.1-0.2-0.2-0.1-0.1 0.1-0.2 0.1-1 0.4-1.9 0.9-1.3 0.6-0.5 0.2-1.3 0.5-0.8 0.3-0.4 0.2-1.1 0.5-0.6 0.2-0.8 0.4-0.8 0.3-0.6 0.3-1.9 0.7-1.5 0.6-0.7 0.4-0.3 0.1-0.6 0.2-0.6 0.3-1.2 0.5-1.3 0.5-1.1 0.5-0.6 0.1-0.8 0.4-1.4 0.5-1.8 0.8-0.7 0.2-3.3 0.7-3.1 0.1-1.7-0.3-1.2-0.3-1.3-0.3-1.7-0.7-1.2-0.7-3.9-2.3-1.1-0.7-2.2-1.5-2.1-1.3-4-2.8-0.3-0.1h-0.1l-0.1 0.1-0.3 0.5-0.5 0.7-0.2 0.3-0.8 0.4h-0.2l-0.6-0.1-0.6-0.3-0.4-0.3-0.4-0.3-0.3-0.2-0.6-0.5-0.3-0.3-0.2-0.4-0.1-0.5v-0.5l0.5-0.8 0.1-0.3v-0.1l-0.1-0.1-0.9-0.6-0.8-0.6-1.2-0.8-1.7-1.1-0.7-0.5-0.2-0.2-0.1 0.1h-0.1l-0.6 0.7-0.1 0.1h-0.3l-0.2-0.1-3.5-2.7-0.3-0.3-0.2-0.5-0.4-1.5-0.7-1.9-0.2-0.5-0.5-0.4-0.2-0.3-0.4-0.4-1.6-1.4-0.6-0.9-0.1-0.3v-0.7l-0.1-0.2-2-1.7-0.5-0.5-0.3-0.3-0.4-0.3-1.5-1.3-0.6-0.6-0.5-0.4-1.5-1.4-0.3-0.5-0.5-0.4-0.6-0.4-0.3-0.2-0.6-0.1-0.8-0.4-0.9-0.5-0.6-0.5-0.6-1-0.4-0.9-0.1-0.7 0.1-0.7v-0.2l0.4-0.4 0.4-0.2 0.9-0.2 0.9 0.1 0.7 0.2 0.6 0.4 0.4 0.3 0.7 0.7 0.8 1.1 0.1 0.4 0.1 0.4v0.4l0.2 0.3 0.6 0.6 0.4 0.5 0.3 0.2 1.1 1.1 0.9 0.8 2.6 2.3 0.4 0.4 2 1.7 0.2 0.1 0.3-0.1h0.6l0.9 0.3 0.4 0.3 1.8 1 1.2 0.7 1.2 0.3 0.6 0.1 0.7-0.1 1.1 0.1 0.6-0.1 0.2 0.1 1.3 0.9 2.1 1.7 0.4 0.4v0.1 0.1l-0.7 1v0.2 0.1l0.1 0.1 0.7 0.6 4.4 3.1 0.3 0.1h0.1l0.1-0.1 0.1-0.2 0.5-0.5 0.2-0.2 0.3-0.1h0.5l0.3 0.2 2.5 1.8 0.4 0.6 0.1 0.3-0.1 0.4-0.2 0.4-0.8 1.2-0.1 0.2v0.1l0.1 0.1 1.4 1 1.1 0.6 0.5 0.4 1 0.7 1.6 1 0.8 0.4 0.4 0.3 0.9 0.6 1.9 1.1 1.1 0.7 0.4 0.2 1.7 1.1 1.2 0.6h0.4l1.7 0.5 0.9 0.1 1.3 0.1 3.2-0.4 1.8-0.4 1.5-0.4 1.1-0.4 3-1.2 0.8-0.3 1-0.5 0.9-0.2 0.5-0.2 1.3-0.6 1.2-0.4 0.9-0.5 1.6-0.5 0.7-0.4 0.5-0.1 0.4-0.2 1.5-0.6 0.6-0.2 1.2-0.4 0.4-0.3 0.6-0.3 0.5-0.3 0.3-0.1 0.6-0.3 0.4-0.1 0.4-0.2 0.6-0.3 0.7-0.3 0.9-0.5 0.1-0.2 0.1-0.1-0.1-0.1-0.3-0.7v-0.7-0.1l0.1-0.1 0.4-0.1 0.3-0.1 3.2-1.4 1.3-0.6 0.6-0.2 0.9-0.5 0.7-0.4 0.8-0.3 0.2-0.1v-0.1-0.2l-0.4-1.1-0.1-0.2v-0.1l0.1-0.1 0.4-0.2 3.1-1.5 1-0.6 1.6-1 2.6-2.2 1.9-1.7 1.2-1.1 0.7-0.4 0.5-0.3 0.5-0.2 1.1-0.6 1-0.5 0.6-0.4 0.5-0.2 0.7-0.4 0.5-0.2 0.3-0.1 0.5-0.3 0.9-0.6 0.8-0.4 0.9-0.5 2-1.1 0.7-0.4 1.4-0.8 1-0.6 1.8-1.1 0.4-0.3 0.5-0.3 2-1.2 3.7-2.5 0.7-0.5 0.8-0.5 0.8-0.6 1.1-0.7 1.3-1 0.5-0.3 0.8-0.6 0.9-0.7 0.7-0.6 0.6-0.4 0.4-0.3 1.6-1.2 0.6-0.3 0.5-0.2 1.6-0.4 1.1-0.2 2.8-0.7 1.4-0.3 1.5-0.9 0.9-0.6 2.7-2.3 1.7-1.4 0.8-0.8 1.6-1.4 1-1 3.2-3.3 3.2-3.5 1.3-1.7 1.5-2.4 1.6-2.2 2.3-3.6 1.3-2.1 2.7-5.4 1.9-4.4 1.8-4.9 1.3-4.1 1.1-4.4 0.3-1.4 0.7-4.8 0.5-4.2v-0.8l0.1-1.8v-5.3-1.9l-0.5-4.9-0.7-4.5-0.7-2.6-0.5-2-1-3-1.4-3.3-0.6-1.2-1.9-3.3-1.4-2.1-1.2-1.7-1.6-1.8-2.4-2.4-1.2-1-1.9-1.5-2-1.3-0.4-0.3-2.3-1.1-1.5-0.7-2.4-0.9-1.3-0.4-1.3-0.4-2.9-0.5-3.1-0.4h-0.7l-2.1-0.1h-0.3l-0.1 0.1v0.1h0.1l0.5 0.3 1 0.6 0.7 0.4 0.8 0.7 0.4 0.2 0.9 0.3 3 1.5 1.4 0.8 3 2.2 2.2 2 3.1 3.6 0.6 0.7 1.4 2.4 1.5 2.6 1 1.9 1 2.4 1.1 3.2 0.7 2.5 0.6 2.3 0.6 3.6 0.4 4.2 0.1 1.2v4 1.7l-0.4 4.3-0.5 3.7-1.1 5.3-0.8 2.7-1.2 3.7-1.4 3.6-1 2.4-1 1.8-2.1 4.1-2 3.3-1.8 2.6-1.7 2.3-2.7 3.4-2.2 2.7-3.1 3.2-0.5 0.5-3.1 2.9-1.1 1-2.7 2.2-2.4 1.9-3.2 2.4-2.2 1.5-2.3 1.5-3.2 1.9-2 1.2-5.3 2.7-2.4 1.1-1.7 0.8-0.6 0.2-0.3 0.2-2.9 1.2-4.4 1.6-2.9 1-3.5 1-2.9 0.8-1.2 0.4-1 0.2-0.6 0.1-5.2 1.1-1.9 0.3-5.2 0.8-3.3 0.4-3.8 0.4-2.3 0.1-1.7 0.1-1 0.1h-1.6l-1 0.1-2-0.1-0.7 0.1-5.5 0.1-0.7-0.1h-1.5l-0.8-0.1h-0.9l-5.6-0.3-3-0.3-6-0.6-4.9-0.6-2.5-0.4-5.8-1-5.7-1.1-5.7-1.2-5.7-1.3-5.8-1.6-2.8-0.8-5.7-1.7-3.7-1.2-1.5-0.4-0.6-0.2-0.3-0.2-0.7-1.1-1.7-2.7-3.1-5.1-2.4-4.3-2.6-5.1-2.5-5.5-1.9-4.3-1.6-4.1-2.1-5.5-1.8-5.6-1.8-5.8-1.2-4.7-1.4-5.9-1-4.9-1-5.7-0.5-3.3-0.7-6-0.4-3.6-0.2-2.7v-0.9l-0.1-0.8v-1.4l-0.1-4.2-0.1-0.9v-3.7-4.2l0.1-2.7 0.1-2.3 0.2-1.8v-1-0.7-0.6l0.2-1.7 0.1-0.4v-0.1l0.1 0.1 0.1 0.3 1 1.7 1.1 1.7 1.6 2.4 3.5 4.9 1.3 2 3.5 4.8 1 1.3 3.6 4.8 1.3 1.7 2.3 2.8 3 3.5 1 1.3 3.6 4.1 1.4 1.6 1 1.1 0.8 0.8 1.3 1.4 0.9 1 0.9 1 0.7 0.7 4.2 4.2 0.8 0.8 1.3 1.2 3.6 3.4 3.4 3 2.9 2.5 3.6 3 4.8 3.5 3.3 2.4 1.7 1.2 5.1 3.2 3.3 2.1 2.8 1.4 4.6 2.4 2.3 1.2 5.2 2.3 2.4 1 2.9 1.1 4 1.3 5.6 1.6 2.5 0.6 5.6 1 3 0.5 3.6 0.4 1.9 0.2h0.6l1.4 0.1h1.2 5.6 1.9l5.7-0.4 3.2-0.5 5.3-1 4.4-1.1 3.5-1 4.4-1.5 3-1.1 3-1.4 3.2-1.6 2.6-1.3 2.4-1.4 3.6-2.2 3.1-2.2 1.2-0.9 2.9-2.4 0.6-0.5 0.5-0.5 3.1-3.1 2.1-2.3 2.3-2.8 1.5-2.1 1.6-2.4 1.1-1.9 1-1.8 1.6-3.5 1-2.5 1.1-3.4 0.8-2.9 0.5-2.9 0.3-2.4v-4.1l-0.1-2.2-0.2-2-0.8-3.3-0.4-1.6-1-2.7-1-1.9-0.5-1-1.5-2.1-1.5-1.8-1.8-1.9-1.2-1.1-0.2-0.1-0.1 0.1v0.1 0.1l0.1 0.3v0.5l0.1 0.4 0.2 1.1 0.1 0.6v0.5l0.8 1.6 0.6 1.5 1.1 3.1 0.8 2.9 0.5 2.3 0.4 3.2v1.6 3.6 1.1l-0.3 2.2-0.6 2.9-0.4 1.5-0.6 2.2-0.6 1.6-0.5 1.3-1.3 2.7-1.6 2.7-1.1 1.6-1.6 2.3-1 1.2-2.6 2.8-1.2 1.2-1.1 1.1-3.1 2.5-1.9 1.5-2.5 1.6-2.8 1.7-3.1 1.5-3.1 1.5-1.6 0.7-3.1 1.1-2.2 0.7-4.5 1.3-2 0.4-5 0.8-2.1 0.3-1.8 0.2-3.6 0.2h-5.2-1-1.9l-1.5-0.1-1.1-0.1-2.1-0.2-5.8-0.8-3.4-0.7-3.7-0.8-2.7-0.7-4.2-1.3-1.8-0.6-3.5-1.3-1.5-0.6-1.7-0.7-1-0.3-2.4-1.1-4.7-2.3-3.9-2.3-1.6-1-0.5-0.3-0.6-0.4-0.4-0.3-0.8-0.4-0.7-0.6-0.7-0.4-1.8-1.3-2.4-1.7-0.7-0.5-0.5-0.5-0.4-0.2-0.4-0.3-1.7-1.4-0.7-0.5-0.4-0.5-0.4-0.3-0.3-0.3-0.6-0.5-0.6-0.5-0.6-0.5-0.9-0.6-1.9-1.6-0.7-0.7-2.5-2.2-0.6-0.5-0.5-0.5-1.3-1.3-2-2-0.5-0.5-0.5-0.5-0.6-0.5-0.5-0.5-0.7-0.7-0.9-1.1-0.2-0.1h-0.2l-0.8 0.7-0.6 0.3-0.5 0.2h-0.6l-0.7-0.2-0.3-0.2-0.8-0.8-0.2-0.4-0.1-0.4v-0.7l0.1-0.5 0.3-0.6 2.4-2.2 0.1-0.2v-0.1l-0.2-0.2-0.6-0.6-0.1-0.1-0.1 0.1-0.4 0.4-1.8 1.5-0.6 0.5-0.8 0.2h-0.4l-0.7-0.2-0.5-0.3-0.4-0.5-0.2-0.3-0.2-0.7v-0.5l0.2-0.6 0.2-0.5 0.6-0.6 1-0.9 0.8-0.6 0.2-0.3 0.1-0.2v-0.1l-0.4-0.5-0.2-0.2h-0.1l-0.6 0.5-1.3 1-1 0.7-0.8 0.3-0.4 0.1-0.5-0.1-0.8-0.4-0.2-0.2-0.4-0.9v-0.7l0.1-0.5 0.2-0.5 0.4-0.7 0.5-0.3 0.6-0.6 0.9-0.8 0.4-0.3 0.1-0.1v-0.1l-0.1-0.2-0.4-0.4-0.2-0.2-0.1 0.1-0.5 0.4-1.7 1.4-0.5 0.3-0.9 0.2-0.7-0.1-0.8-0.3-0.2-0.2-0.2-0.3-0.3-0.8-0.1-0.3 0.4-1.2 0.3-0.5 0.9-0.8 1.1-0.9 0.5-0.4v-0.1-0.1l-0.2-0.4-0.4-0.4-0.1-0.1h-0.1l-0.1 0.1-1.7 1.4-0.9 0.6-0.7 0.4-0.4 0.1-0.7-0.3-0.6-0.4-0.5-0.7-0.1-0.3v-1.1l0.3-0.6 0.4-0.5 0.5-0.4 0.4-0.4 1.4-1.1 0.2-0.2v-0.1l-0.1-0.1-0.3-0.6-0.4-0.3-0.1-0.1-0.1 0.1-0.3 0.2-2.5 1.9-0.8 0.2-0.3 0.1-0.4-0.1-0.5-0.3-0.3-0.2-0.4-0.5-0.1-0.5 0.1-0.9v-0.3l0.6-0.9 0.6-0.6 1.9-1.4 0.1-0.2v-0.2l-0.4-0.5-0.2-0.2h-0.1l-0.2 0.1-2.6 1.9-1.2 0.5h-0.4l-0.4-0.1-0.2-0.2-0.5-0.7-0.2-0.3v-0.4l0.1-0.4 0.2-0.7 0.2-0.3 1.3-1.4 1.5-1 0.2-0.2v-0.1-0.1l-0.2-0.2-0.2-0.5-0.2-0.1-0.1-0.1-0.1 0.1-2.6 1.8-1.1 0.3-0.4 0.1-0.3-0.1-0.6-0.3-0.2-0.3-0.2-0.3-0.1-0.3v-0.5l0.2-0.6 0.2-0.3 1.1-1.1 2-1.5 0.1-0.1v-0.1-0.1l-0.4-0.5-0.1-0.1h-0.1l-0.1 0.1-0.5 0.3-2 1.5-0.3 0.1-1 0.1-0.5-0.2-0.5-0.2-0.3-0.3-0.4-0.6-0.1-0.6 0.3-0.9 0.2-0.4 0.8-0.9 2-1.4 0.2-0.2v-0.1-0.1l-0.2-0.3-0.2-0.2h-0.1-0.1l-1.8 1.3-0.4 0.2-1.2 0.4h-0.3l-0.6-0.1-0.4-0.1-0.4-0.4-0.3-0.3-0.2-0.6v-1l0.1-0.4 0.3-0.5 0.6-0.6 0.3-0.3 2-1.4 0.1-0.2 0.1-0.1-0.3-0.4-0.1-0.2-0.1-0.1-0.1 0.1-2.1 1.3-1.1 0.5h-0.7-0.3l-0.4-0.3-0.4-0.5-0.4-0.5-0.1-0.3-0.1-0.7 0.1-0.5 0.4-0.6 0.5-0.4 2.3-1.5 0.2-0.2v-0.1-0.1l-0.2-0.5-0.2-0.2h-0.1-0.1l-1.6 1.1-0.9 0.5-0.6 0.2-0.6 0.1-0.5-0.1-0.6-0.2-0.3-0.3-0.6-0.9-0.1-0.4v-0.4l0.2-0.6 0.3-0.5 0.9-0.8 0.5-0.4v-0.1-0.1l-2.4-4.5-0.2-0.2h-0.1-0.1l-0.5 0.2-2.1 1.2-1.8 1-0.5 0.2h-0.3l-0.6-0.2-0.6-0.5-0.3-0.3-2.5-4.8-0.1-0.3v-0.4l0.2-0.3 0.4-0.3 0.5-0.4 1.2-0.8 0.1-0.2v-0.2-0.3l-1-1.8-0.4-0.7-0.4-0.8-0.1-0.3 0.1-0.5 0.3-0.8 0.2-0.3 0.8-0.4 1-0.7 0.6-0.5 0.9-0.3 0.1-0.1v-0.1-0.2l-0.4-0.7-0.1-0.6-2.1-4.1-0.3-0.8v-0.3l0.2-0.3 0.2-0.5 0.4-0.3 0.2-0.1 0.5-0.1 0.3 0.1 0.4 0.1 0.3 0.4 1.6 2.9 0.8 1.5 0.3 0.6 0.4 0.5 0.1 0.2 0.1 0.1 0.2-0.1 4.2-2.3h0.3l0.6 0.1 0.3 0.2 0.6 0.6 0.8 1.6 0.4 0.5 0.5 0.8 0.2 0.2h0.1l0.1-0.1 0.8-0.4 0.8-0.4 0.5-0.1h0.8l0.4 0.1 0.5 0.4 0.2 0.4 1.9 3.6 0.4 1.1v0.4l-0.1 0.3-0.2 0.4-0.6 0.6-0.5 0.3-1 0.7-2 1.2-0.8 0.5-0.1 0.1v0.1l0.1 0.3 1.3 2.3 0.3 0.5 0.2 0.4 0.6 1.2h0.1l0.1 0.1 1.1-0.5 0.5-0.3 0.4 0.1 0.6 0.3 0.4 0.2 0.5 0.6 0.4 0.9 0.1 0.5-0.1 0.3-0.2 0.3-0.4 0.6-0.7 0.4-2.7 1.8-0.2 0.2v0.1 0.1l0.2 0.5 0.2 0.2h0.1 0.1l2.2-1.5 0.6-0.3 1.2-0.4h0.5l0.7 0.1 0.3 0.2 0.6 0.6 0.2 0.6 0.1 0.3-0.1 0.4-0.1 0.3-0.9 1.1-0.3 0.2-2.9 1.9-0.1 0.2v0.1 0.1l0.2 0.5h0.1l0.1 0.1 0.1-0.1 2.9-1.8 0.7-0.2 0.9-0.1h0.4l0.5 0.3 0.3 0.3 0.2 0.4 0.3 0.8v0.3 0.4l-0.4 0.8-0.6 0.6-2.9 2-0.2 0.2v0.1l0.1 0.3 0.2 0.3h0.1 0.1l0.4-0.3 3-2 0.3-0.1 0.9 0.1 0.2 0.1 0.5 0.5 0.4 0.5 0.1 0.4 0.1 0.7-0.2 1-0.1 0.2-0.5 0.4-0.9 0.6-1.1 0.8-0.8 0.6-0.2 0.1v0.2 0.1l0.3 0.4 0.1 0.2h0.1 0.2l0.7-0.6 0.6-0.3 2-1.4 0.4-0.2h0.7l0.2 0.1 0.8 0.8 0.3 0.6 0.1 0.4v0.5l-0.2 0.3-0.3 0.4-3.3 2.4-0.1 0.2v0.1 0.1l0.5 0.7 0.1 0.1 0.1-0.1 2.9-1.8 0.8-0.5h0.5 0.3l0.2 0.1 0.7 0.5 0.2 0.3 0.3 0.8v0.4l-0.1 0.3-0.3 0.6-3.1 2.2-0.2 0.3-0.1 0.1v0.1l0.4 0.5 0.2 0.2h0.1 0.1l0.7-0.6 2-1.4 0.8-0.3 0.4-0.1 0.6 0.1 0.3 0.2 0.4 0.3 0.4 0.6 0.2 0.6v0.4l-0.1 0.5-0.2 0.4-0.3 0.4-0.3 0.2-1 0.7-1.6 1.3-0.1 0.1v0.1l0.1 0.1 0.5 0.7 0.2 0.3h0.2 0.1l0.2-0.2 1.3-1 1.5-1.1 0.3-0.1h0.4 0.2l0.2 0.2h0.1l0.2-0.1h0.1l0.3 0.2 0.3 0.2 0.6 0.8 0.1 0.3v0.5l-0.1 0.6-0.2 0.2-0.7 0.7-0.4 0.4-1.9 1.6-0.2 0.1v0.2l0.1 0.1 0.3 0.4 0.2 0.3h0.1 0.1l2.6-2 0.6-0.4h0.4 0.5l0.6 0.3 0.3 0.2 0.5 0.5 0.2 0.4 0.1 0.4-0.2 1-0.1 0.5-0.3 0.3-0.5 0.5-0.5 0.4-1.2 1.1-0.3 0.2v0.1 0.2l0.4 0.5 0.2 0.1h0.1 0.1l0.2-0.1 1.3-1 0.8-0.5 0.7-0.4 0.5-0.1 0.6-0.1 0.6 0.2 0.3 0.1 0.5 0.6 0.2 0.5 0.1 0.3-0.2 1-0.2 0.4-1 1.2-0.3 0.2-1.1 0.9-0.1 0.2v0.2 0.1l0.4 0.5h0.1 0.1 0.1l0.4-0.4 1.2-1 0.7-0.6 0.7-0.2h0.8l0.6 0.2 0.4 0.3 0.4 0.4 0.3 0.5 0.1 0.3v0.7l-0.2 0.8-0.2 0.3-0.3 0.2-1.8 1.7-0.1 0.3v0.1l0.6 0.7h0.1 0.1 0.2l0.9-0.9 1.4-1.3 0.6-0.2h0.8l0.6 0.2 0.5 0.4 0.4 0.3 0.3 0.4 0.1 0.5-0.1 0.8-0.1 0.3-0.4 0.6-0.1 0.2v0.2l0.1 0.2 0.9 1 0.8 0.9 1 1 1.1 1 0.6 0.6 1.1 1.1 1.6 1.5 1.1 1 1 0.9 0.5 0.5 0.9 0.6 1.1 1 3.6 2.9 1.6 1.2 0.9 0.8 0.4 0.3 0.9 0.7 0.9 0.6 1.2 0.9 0.5 0.4 1 0.6 2.9 2.1 0.5 0.3 0.3 0.2 0.4 0.3 0.9 0.6 0.5 0.3 1.6 1 0.3 0.3 1.6 0.9 0.8 0.5 1.5 0.8 1.2 0.6 0.5 0.3 2.6 1.4 2.8 1.4 5.4 2.4 1.4 0.4 1.6 0.5 1.5 0.4 1 0.3 0.8 0.3 1.2 0.3 1.8 0.4 3.1 0.7 4.4 0.9 2.6 0.4 4.7 0.5h0.6 0.9l1.5 0.1 1 0.1h2.8 0.6l1.9-0.1 4.4-0.3 3.4-0.5 1.3-0.2 1.8-0.3 3.1-0.6 4.1-1.1 3.5-1.2 0.9-0.3 2.6-1 3.1-1.5 2.7-1.4 3.1-1.8 1.3-0.9 3.6-2.7 1.2-1 0.8-0.8 0.4-0.3 1-1 1.8-1.9 1.2-1.3 2.2-3 1-1.7 1.6-2.8 0.9-2.1 0.6-1.6 0.9-3 0.3-1.5 0.3-2.6 0.2-2.2 0.1-3.7-0.5-4-0.5-2.4-0.9-3.4-0.1-0.2-0.1-0.1-0.1 0.1-0.1 0.1v0.5l-0.1 0.6-0.1 0.5-0.2 0.8-0.4 1.4v1.6l-0.2 1.4-0.4 2.1-0.4 2-0.5 1.6-1.3 3-0.3 0.7-0.7 1.4-1.2 1.9-2 2.9-1.9 2.2-2 2.1-2 1.9-2 1.6-3 2.1-2.3 1.5-0.9 0.4-2.9 1.6-2.5 1.1-2 0.8-3.6 1.3-2.8 0.8-2.3 0.5-1.8 0.4-3 0.4-5.3 0.5-5.2 0.1-1.2-0.1-2.7-0.1-1.1-0.1-1.6-0.2-2.5-0.4-2.4-0.4-2.8-0.6-2.6-0.7-4.5-1.3-3.1-1.1-1.2-0.5-0.9-0.4-0.8-0.3-1.8-0.8-1.3-0.6-4-2-2.5-1.3-2.5-1.6-3.4-2.1-1.3-1-1.6-1.1-1.4-1-1.1-0.8-1.5-1.2-4.6-3.8-2.2-2-1.4-1.3-2.5-2.5-0.6-0.6-1.8-2-1.6-1.7-1.8-2.1-2.4-3-3.2-4.3-1.5-2.2-2.4-3.7-2.5-4.3-2.1-3.9-1.6-3.2-0.3-0.7-1.2-2.7-1.4-3.1-2.1-5.1-0.9-2.6-1.9-5.6-1.3-4.1-1-3.7-1-4-1.4-5.9-0.6-3.4-0.8-4.3-0.9-5.9-0.9-5.9-0.4-3.5-0.5-5.9-0.4-5.4-0.2-3.1v-1.6l-0.2-3.5v-1.5-1.6l-0.1-0.8v-1.4-1l-0.1-3v-4l0.1-0.2 0.9-1.3 3.9-4.6 3.7-4.2 1.7-1.9 1.3-1.3 4.3-4.2 3.3-3.1 4.1-3.6 2.9-2.4 2.6-2.1 4.7-3.6 3.3-2.4 0.8-0.5 2.1-1.5 3.1-2.1 2.8-1.7 3.5-2.1 2.6-1.5 3.9-2.2 0.8-0.4 1.1-0.6 3.9-1.9 1.6-0.8 0.8-0.4 4.6-2.1 2.6-1.1 2.8-1.1 3.6-1.4 0.8-0.3 1.2-0.5 0.7-0.2 0.8-0.3 1.1-0.4 3.6-1.2 2.1-0.6 1.3-0.5 3.4-0.9 5.8-1.5v0.1 0.1l-0.3 0.3-2.8 3.6-2.9 3.8-3.6 4.8-2.4 3.3-0.9 1.3-3.1 4.5-3.3 5-3 4.7-2.9 4.8-1.3 2.2-1.2 2.1-0.5 0.8-1.4 2.7-2.9 5.2-1.3 2.6-1.5 3.1-2.3 4.9-1.6 3.7-1.7 4.1-2.1 5.6-1 3.1-1.6 4.8-1.2 4.1-0.9 3.4-1.1 4.7-0.9 4.8-0.7 4.3-0.3 1.9-0.6 6-0.1 2.7-0.1 1.4v2l-0.1 2.6 0.1 0.8v1.5l0.1 4.2 0.4 4 0.3 2.6 0.7 4.5 1.1 5.4 1.4 5.3 0.9 2.6 1.6 4.5 1.6 3.7 1.3 2.8 1.9 3.8 1.2 2.3 2.3 3.5 3.4 4.9 3.4 4.3 1 1.2 0.9 0.9 1.2 1.4 2.2 2.2 1.6 1.6 1.9 1.7 2 1.9 2.8 2.1 1.7 1.2 2 1.4 0.9 0.6 1.3 0.8 2.8 1.6 5.1 2.4 4 1.5 1.6 0.5 3.2 0.8 1.4 0.3 2.8 0.5 4 0.5h1.6 0.7 1.8 1.6l1.4-0.2 2.4-0.3 3.5-0.7 2.5-0.6 1.3-0.5 2-0.8 2.5-1.3 1.4-0.8 3.3-2.4 2-1.9 1.6-1.7 1.9-2.5 0.5-0.9 0.9-1.7 0.9-2.1 0.1-0.4h-0.1l-0.2 0.1-1.5 0.9-1.9 0.9-2.8 2.5-2.1 1.6-4.1 2.4-2.4 1.3-0.9 0.4-1.2 0.5-1.8 0.5-1.6 0.5-2.3 0.5-1.8 0.3-2.5 0.3-3 0.1-2.4-0.1-1.3-0.1-3.7-0.6-2.5-0.6-3.1-1-1.7-0.6-3.2-1.5-2.6-1.5-2.5-1.4-2.6-1.8-1.9-1.5-2.6-2.2-2.9-2.8-0.9-0.9-3.4-4-1.2-1.6-3.2-4.6-2.8-4.8-1-2-1.2-2.5-0.9-2.1-1.1-2.7-1.1-3-1-3.3-0.9-3.2-0.8-3.1-0.4-2.5-0.5-2.7-0.5-3.5-0.5-4.5-0.3-5.1v-2.9-2.4l-0.1-0.7 0.1-0.6-0.1-0.5 0.1-0.9-0.1-1.1 0.1-0.5v-0.4-0.3l0.1-0.4-0.1-0.3v-0.6l0.2-0.9v-1.1l0.1-0.8v-0.8l0.1-1.4 0.3-2.1 0.1-0.5v-0.4l0.1-0.6 0.2-1.5 0.1-1 0.1-0.6v-0.5l0.1-0.7v-0.6l0.3-1.2v-0.8l0.1-0.4 0.1-0.4-0.1-0.2-0.1-0.1-0.9-0.3-0.4-0.2-0.6-0.3-0.3-0.2-0.1-0.2v-0.4l0.2-1.1 0.5-1.2 0.2-0.8 0.2-0.4 0.3-0.3 0.2-0.1h0.4l1.7 0.3 0.6 0.2h0.2l0.1-0.1 0.1-0.1 0.4-1.8 0.2-0.5 0.9-2.6 0.8-2.3 0.4-1 0.9-2.3 2.1-5.7 0.1-0.7v-0.6l0.1-1.5-0.1-0.4 0.1-0.4 0.1-0.4v-0.9l0.1-0.7v-0.5-0.3l0.1-0.9-0.1-0.8 0.2-0.8 0.3-0.6 1-1.9 0.6-1.3 0.3-0.6 0.1-0.1h0.2l0.1 0.1 0.3 0.2 0.4 0.3 0.8 0.3 0.3 0.2 0.1 0.1 0.1-0.1 0.1-0.1 1.6-3v-0.2-0.1l-0.1-0.1-0.5-0.4-0.2-0.3-0.2-0.7-0.1-0.3 0.1-0.5 0.2-0.3 0.4-0.4 0.4-0.2 0.6-0.1 0.3 0.1 1.9 1.1h0.1l0.1-0.1 0.2-0.4 0.1-0.2v-0.2-0.1l-1.8-1-0.3-0.3-0.3-0.4-0.1-0.4v-0.2l0.3-0.6 0.3-0.5 0.3-0.2 0.2-0.1h0.8l0.9 0.3 0.5 0.3 0.8 0.4h0.1 0.1l0.3-0.6 0.1-0.2v-0.1l-0.1-0.1-1.3-0.8-0.8-0.6-0.2-0.3-0.1-0.6v-0.4l0.4-0.7 0.3-0.3 0.3-0.2 0.3-0.1h0.7l0.3 0.2 0.4 0.3 0.2 0.1h0.3 0.2v-0.1l2.6-3.9 0.1-0.3v-0.1l-0.1-0.1-0.2-0.1-0.6-0.6-0.1-0.1 0.1-0.2 0.5-0.8 0.9-1.1 0.6-0.9 0.1-0.2h0.2 0.1l1.7 1.1 0.2 0.1h0.1l0.4-0.4 0.2-0.4 1.5-2 0.5-0.6 0.4-0.5 0.8-1.2 1.4-1.7 1.4-1.7 0.4-0.5 0.5-0.6 2.9-3.4 1.8-1.9 1.9-2 0.6-0.6 1.7-1.8 1.2-1.2 0.9-0.8 0.3-0.4 1.2-1.2 0.7-0.7 0.4-0.3 2.5-2.4 1.6-1.5 0.8-0.6 0.4-0.4 2.6-2.3 4.6-3.8 0.7-0.6 2.6-2.1 0.7-0.5 1.3-1 0.7-0.5 0.5-0.4 0.4-0.3 0.5-0.3 0.4-0.3 0.3-0.3 1.8-1.3 1.1-0.8 0.9-0.8 0.8-0.5 0.7-0.6 0.8-0.6 0.9-0.6 1.1-0.9 0.7-0.5 0.9-0.8 0.4-0.2h0.3l0.5 0.1 0.5 0.2 0.3 0.2 0.4 0.8 0.1 0.5-0.1 0.2-0.2 0.3-0.5 0.5-2.6 1.9-1.1 0.8-0.4 0.2-0.3 0.2-0.6 0.5-1.6 1.1-0.6 0.4-0.4 0.4-1.1 0.8-2.1 1.5-3.1 2.5-0.9 0.7-1.8 1.4-1 0.9-0.4 0.4-0.3 0.2-1.1 0.8-0.7 0.6-1.5 1.4-0.4 0.3-1.3 1.1-0.6 0.6-0.4 0.4-0.7 0.6-0.6 0.5-0.5 0.5-0.8 0.7-0.5 0.5-1 0.8-0.2 0.3-0.8 0.7-2.3 2.2-0.8 0.9-0.4 0.4-0.7 0.7-1.6 1.6-0.7 0.7-0.9 1-1 1-0.7 0.8-1.1 1.3-0.5 0.3-0.2 0.3-0.8 1-0.8 1-1.6 1.9-0.9 1.1-2.8 3.5-1.3 1.8-0.4 0.6-0.5 0.6-0.8 1.3-0.1 0.2v0.1l0.1 0.1 0.4 0.4 0.6 0.4 0.5 0.3v0.1 0.2l-0.1 0.2-0.5 0.7-0.6 0.9-0.9 1.3-0.2 0.3h-0.1-0.1l-0.5-0.4-0.2-0.1h-0.1l-0.1 0.1-0.4 0.6-2 3.2-0.1 0.2v0.1l0.1 0.1 0.7 0.4 0.4 0.4 0.2 0.5 0.1 0.2-0.2 0.5-0.2 0.4-0.4 0.6-0.3 0.2-0.3 0.1h-0.4l-0.6-0.3-0.4-0.3-0.2-0.1h-0.4-0.1v-0.1l-0.2-0.3-0.5-0.3h-0.1-0.1l-0.3 0.5-0.1 0.2v0.1l0.2 0.2 0.8 0.4 0.7 0.6 0.4 0.2 0.3 0.2 0.2 0.3 0.1 0.3v0.5l-0.3 0.6-0.3 0.4-0.3 0.2-0.4 0.2h-0.5l-0.5-0.1-0.4-0.3-1.2-0.7-0.4-0.2h-0.1l-0.1 0.1-0.3 0.5v0.2 0.1l0.1 0.1 1.2 0.8 0.5 0.1 0.4 0.4 0.2 0.2 0.1 0.3v0.5l-0.2 0.5-0.1 0.4-0.3 0.3-0.5 0.3-0.4 0.1-0.2-0.1-0.5-0.2-0.5-0.3h-0.1l-0.2 0.2-0.6 1.2-0.6 0.9-0.1 0.5v0.1l0.1 0.1 0.3 0.2 1.9 1.2 0.1 0.1v0.1l-0.1 0.2-1.1 2-0.7 1.3-0.3 0.4-0.3 0.6-0.5 0.3-0.3 0.4-2.7 3.2-1.4 1.7-0.2 0.4-2 5.6-2 5.7-0.2 0.8-0.5 2-0.2 0.6-0.2 0.8v0.4 0.1h0.1l0.7 0.3 0.6 0.3 0.4 0.2h0.4l0.3 0.1 0.5 0.3 0.4 0.4 0.1 0.2 0.1 0.5-0.2 0.9-0.9 2.2-0.2 0.4-0.4 0.3h-0.2-0.8l-0.6-0.2h-0.1l-0.1 0.1-0.1 0.1-0.1 0.5-0.2 1.5-0.3 1.3-0.4 2.3-0.2 1.4-0.3 1.7-0.2 1.1v0.4l-0.2 0.4-0.1 1.1 0.1 0.3-0.1 0.6-0.3 3.1v0.6 0.8l-0.2 2.4v0.9 0.8l-0.1 0.4-0.1 1.4v1.2l-0.1 0.6 0.1 1 0.1 1.3v1.2l0.1 1.8 0.3 3.9 0.4 3.7 1 5.3 0.9 3.9 1.6 5.1 0.7 2 1.8 4.7 2.2 4.5 1 1.9 1.8 2.9 1 1.7 1.7 2.5 1.3 1.7 1.6 2 1.1 1.3 1.6 1.7 1.7 1.8 2.2 2 2.1 1.8 1.8 1.3 4.2 2.8 1 0.6 1.6 0.8 3.9 1.6 1.5 0.5 1.8 0.6 3 0.6 2.3 0.4 1.4 0.1 1.6 0.1 1-0.1 2.4-0.1 2.1-0.3 2.1-0.4 1.3-0.3 1.8-0.6 1-0.4 1-0.4 2.5-1.1 2.2-1.1 1.4-0.9 1.8-1.3 0.2-0.2-0.1-0.1-0.8 0.2h-0.6l-1.4 0.2h-0.4-0.5-0.4l-0.3-0.1-0.6 0.2-1.5 0.3-2.8 0.4h-3l-2.3-0.1-2.8-0.5-2.6-0.6-2.1-0.6-1.3-0.4-2.6-1.2-1-0.4-2.3-1.3-4.2-2.7-1-0.7-3.7-3.2-1.9-1.9-2.4-2.6-1.4-1.7-2.1-2.9-2.3-3.7-1.2-2-1.9-3.8-0.9-2.1-1.4-3.8-0.9-2.9-0.6-2.1-1.2-5.1-0.7-4.3-0.2-2.2-0.4-3.7-0.1-4.5 0.1-2.2 0.1-3.7 0.2-1.2 0.5-4.3 0.7-4.4 0.9-4.3 1-3.9 0.9-3.3 1.2-3.5 2.1-5.6 1.6-3.7 1-2.2 1.1-2.1 1.3-2.7 2.4-4.2 2.6-4.2 0.4-0.6 0.2-0.3 2.3-3.4 1.7-2.2 3.6-4.6 2.2-2.6 3-3.2 3.1-3.3 2.6-2.5 4.2-3.9 2.1-1.7 4.7-3.8 3.5-2.6 4.9-3.4 4-2.7 5-3.1 5.1-2.9 5-2.8 5.3-2.7 4-1.9 4.9-2.2 3-1.3 5.5-2.3 1.3-0.5 5.5-2.1 5.5-2 5.6-1.9 0.6-0.3 0.3-0.1h0.4l1.9 0.7 1.7 0.8 3.7 1.5 5.2 2.3 4.6 2.2 4 2.2 2.9 1.5 3.9 2.3 4 2.4 3.1 2 3.5 2.4 3.1 2.3 3.9 2.9 4.1 3.3 3 2.5 4.5 4 0.8 0.8 1.7 1.6 1.3 1.3 4.2 4.3 2 2.3 1.9 2.1 3.9 4.6 1.6 2 3.6 4.8 2.2 3 2 2.9 0.5 0.8 0.2 0.4 1.2 1.8 2.4 3.8 1.1 2 0.1 0.2-0.1 0.1-0.2-0.1-0.7-0.3-2.6-0.9-5.5-2.1-3.8-1.3-0.9-0.3-1.8-0.7-5.5-1.7-3.3-1-5.7-1.6-5.7-1.6-3.8-0.8-5.6-1.4-5.9-1.1-4.8-0.8-5.9-0.9-5.1-0.6-2.7-0.3-5.9-0.5-1.1-0.1h-1.1-1.2l-0.9-0.1h-2.1-1.2l-4.4-0.1-0.8 0.1h-1.6-1.6l-4.7 0.2-3.1 0.3-5.9 0.7-3.9 0.6-5.8 1.1-4.1 1-2.6 0.6-5.1 1.7-5.1 1.9-4 1.6-1.3 0.6-3.8 2-3.3 1.8-1.2 0.7-1.8 1.1-2.1 1.3-1.2 0.8-1.1 0.8-1 0.7-3.5 2.7-0.9 0.8-1.3 0.9-1.8 1.6-3.2 3.1-2.1 2-0.4 0.5-1.2 1.2-3.8 4.6-1.7 2.2-2.4 3.3-1.1 1.6-1.6 2.7-1.6 2.7-2.4 4.6-0.6 1.3-2.1 4.8-1.2 3.2-1.2 4.1-1.2 5-0.4 2.5-0.4 3.3-0.1 1.9-0.1 1.9-0.1 2.3 0.1 1.2 0.1 1.7 0.1 1.3 0.4 3.1 0.4 2.3 0.2 1 0.8 3.5 0.4 1.3 1.5 4.1 0.7 1.6 1.6 2.9 1.5 2.4 2.5 3.2 2.1 2.1 0.9 0.9 1.9 1.5 1.3 0.9 1.3 0.8 0.7 0.4 1.6 0.8 1 0.4 1.9 0.7 2.1 0.5 1.3 0.3 2 0.3h0.7 0.1v-0.1l-0.5-0.4-1.4-1.3-0.3-0.5-0.9-0.9-1.3-0.8-2.2-1.5-2.9-2.2-0.9-0.8-1.7-1.7-1.4-1.5-1.5-1.8-2.1-3.1-0.8-1.2-1.2-2.4-1.2-3.1-0.4-1.3-0.7-2.5-0.5-2.3-0.5-3.6-0.2-3v-2.9l0.2-2.2 0.1-1.3 0.3-1.9 0.6-3.4 0.5-2.2 0.8-2.3 1.3-3.9 1.2-2.8 1.1-2.2 1.6-3.1 2.3-3.7 0.9-1.3 2.5-3.5 1.8-2.2 2.2-2.5 1.4-1.4 0.8-0.8 1.3-1.3 2.4-2.2 2.3-1.9 2.9-2.3 2.5-1.9 2.6-1.7 4.8-2.9 3-1.7 2.1-1 3.2-1.5 0.9-0.4 5-2 4.3-1.4 2.7-0.8 4-1.1 3.5-0.8 1.2-0.2 2.4-0.4h0.4l0.4-0.2 0.5 0.1 0.9-0.3 2.8-0.2 1.2-0.3h1.1l0.5-0.1h0.5 0.6 0.6l0.8-0.1h0.4l0.9-0.1h0.9l2.2-0.1h1.8 3.1 0.6 1.7l1.7 0.1 0.9 0.1 0.9 0.1 0.5-0.1 0.5 0.1h0.8l1.3 0.1 2.6 0.4 1.6 0.2 0.9 0.1 1.6 0.3 1.8 0.2 0.5 0.1 0.6 0.1 0.8 0.1 2 0.2 2.4 0.4 0.6 0.1 0.3 0.1 0.9 0.1 0.4 0.1 0.9 0.2 1 0.1 1.1 0.4 0.7 0.1 0.8 0.3h0.3l0.1-0.1v-0.1l0.4-1.5 0.2-0.4h0.1l0.1-0.1 0.2 0.1 4.9 1.4 1.1 0.3 0.5 0.2 0.7 0.1 1.5 0.4 1.2 0.5 2.1 0.6 0.8 0.3 1.6 0.5 1.8 0.5 0.9 0.3 0.6 0.3 0.6 0.1 1.2 0.3 2.6 0.9 0.9 0.4 1.1 0.3 0.3 0.2 1.4 0.5 0.4 0.2 0.5 0.1 0.7 0.3 0.5 0.2 3.2 1.1 1 0.4 1.2 0.6 0.1-0.1h0.1l0.1-0.1 0.1-0.3 0.2-0.4 0.2-0.6 0.5-1.4 0.3-0.2 0.2-0.1h0.1l0.4 0.2 0.4 0.1 2 0.8 1.7 0.8 0.5 0.1h0.5l0.8-0.5 0.7-0.2 0.6-0.2 0.4 0.1 0.6 0.2 1 0.5 0.7 0.6 0.3 0.4 0.2 0.4 0.5 1 0.2 0.3 0.3 0.2 0.9 0.4 2.9 1.3 0.7 0.4 0.2 0.1v0.1l0.1 0.3v0.6l0.6 1.3 0.5 0.9 1.4 1.5 0.5 0.3 1 0.5 0.4 0.3 0.4 0.3 2.7 0.6 1.3 0.2h0.8l1.4-0.1 1.2-0.4 0.5-0.3 0.4-0.1h0.2l0.3 0.2 0.9 0.4 1 0.5 1.1 0.5 0.5 0.3 1.3 0.8 0.2 0.2 0.1 0.2v0.4l-0.4 0.8-0.5 1-0.6 1.5-0.9 1.8-0.9 1.9v0.2 0.1l0.1 0.1 0.6 0.3 0.4 0.2 0.5 0.3 0.9 0.6 2.9 1.4 0.5 0.4 0.5 0.2 1.7 1 1.3 0.6 0.9 0.7 0.2 0.2 0.3 0.7 0.1 0.4-0.1 0.3-0.4 0.6-0.3 0.3-0.3 0.1-0.5 0.1-1.1-0.3-2.9-1.5-5.2-2.8-1.6-0.7h-0.2-0.1v0.1l-0.1 0.3-0.2 0.6-1.2 2.7-0.4 0.9-0.4 0.6-0.1 0.5-0.8 1.4-0.2 0.1-0.2 0.1h-0.1l-0.3-0.3-0.6-0.3-0.7-0.3-0.4-0.2-0.5-0.2-3-1.2-0.2-0.2-0.3-1-0.5-1.3-0.5-1.1-0.4-0.5-0.8-0.7-1.3-1.1-1.2-0.6-1.4-0.5-1-0.3-0.8-0.1-1.9 0.1-1.3 0.3-0.9 0.5h-0.3l-1.1-0.4-1.6-0.8-1.7-0.9-0.3-0.1-0.2 0.1-0.4 0.2-0.8 0.4-0.4 0.2-0.5 0.1h-0.9l-0.7-0.2-0.8-0.5-1-0.9-0.4-0.6-0.3-0.8v-0.5-0.2l-0.1-0.1-0.3-0.1-0.8-0.4-0.9-0.4-0.6-0.3-0.7-0.3-1.5-0.6-0.1-0.2-0.1-0.2 0.1-0.4 1-2.2 0.3-0.8-0.1-0.1v-0.1l-0.1-0.1-0.6-0.2-0.4-0.1-2.3-1-1.2-0.5-1-0.4-1.5-0.6-3.7-1.3-2.5-0.9-1.2-0.4-1.6-0.4-0.8-0.3-0.5-0.1-0.4-0.2-1.3-0.3-1.6-0.4-0.7-0.2-0.8-0.3-0.6-0.1-0.6-0.2-0.8-0.1-0.4-0.2-0.7-0.2-2.7-0.5-0.8-0.2-2.4-0.5-0.4-0.1-0.1-0.2-0.1-0.2 0.1-0.6 0.3-0.9v-0.2l-0.1-0.2h-0.1l-0.6-0.2-1.1-0.1-0.4-0.1-1-0.4h-0.7l-0.4-0.2-0.8-0.1-1.5-0.3-1.4-0.3-1-0.1-0.6-0.1-1-0.1-1.9-0.3-1-0.1-1.1-0.1-1.3-0.3h-0.9l-0.8-0.1h-0.4l-0.5-0.1h-0.5l-0.5-0.1h-0.3-0.3-1.4l-0.5-0.2h-0.9-0.5-0.3l-0.3-0.1-1.1-0.1-0.5-0.1-0.4 0.1-0.4-0.1h-0.5l-0.7-0.2-0.8 0.1-0.9-0.1h-0.9-0.5-2.3l-2.6 0.1-0.7-0.1h-0.3l-0.5 0.1-3.6 0.2-2.3 0.2-2.2 0.4-1.4 0.1-4.3 0.6-3.1 0.6-2.1 0.4-4.1 1.1-1.3 0.5-0.7 0.1-0.3 0.2-0.1 0.1h-0.4l-1.3 0.4-2 0.9-0.6 0.1-0.7 0.5h-0.3l-0.4 0.1-0.3 0.3-1.4 0.5-0.5 0.3-0.4 0.2-1 0.5-0.6 0.3-3.3 1.6-1.6 0.9-0.9 0.4-2.8 1.7-3.7 2.3-1.3 1-2 1.4-2.3 1.8-2.3 2-2.1 1.9-1.2 1.1-1.4 1.5-1.2 1.3-2.6 3-1.5 2-2.5 3.3-1.2 1.9-2.6 4.4-1 2.2-1.1 2.3-1.2 3.2-1.2 3.7-0.5 2.2-0.6 3.4-0.3 1.8-0.1 3.4v1.3l0.2 3.7 0.3 1.9 0.3 1.6 0.6 2.3 0.6 1.7 0.7 1.9 1.6 3.4 0.9 1.3 0.9 1.4 1.6 2.1 1.4 1.5 1.6 1.7 3.1 2.7 0.2 0.1h0.1l-0.2-0.7-0.6-1.2v-0.4l-0.5-1.8-0.2-0.5-1.4-2.5-0.7-1.6-0.6-1.8-0.6-2.3-0.5-2.4-0.4-3.7v-3l0.3-3.7 0.7-4 0.4-1.6 0.9-3.1 0.2-1 0.7-1.8 1.3-3 1.1-2.3 1.6-2.9 0.7-1.2 1.8-2.6 1.3-1.9 3.2-3.9 0.8-0.9 2.8-2.8 2.3-2.1 2.3-1.9 3-2.2 1.7-1.2 2-1.3 4.1-2.3 4.1-2 1.7-0.7 2.1-0.8 3-1.1 2.8-0.9 3.1-0.9 2.2-0.5 3.7-0.8 2-0.3 2.4-0.3 2.4-0.3 1.9-0.2 2.3-0.1 1.8-0.1 2.5-0.1 2.5-0.1 3.5 0.1 1.1 0.1 3.6 0.2 3.2 0.3 3.7 0.5 4 0.6 2.7 0.6 4 0.9 4.8 1.2 0.4 0.2 3.5 1.1 3.8 1.4 2.3 0.8 4.3 1.8 3.7 1.7 3.6 1.8 1.9 1.1 2.9 1.6 4.2 2.6 3.8 2.4 4.8 3.4 2.9 2 4.2 3.4 1.9 1.6 4.6 4 1.1 1 0.5 0.4 3.4 3.2 2.5 2.5 0.7 0.6 2.9 3 1.8 1.8 0.3 0.4 3.7 4.1 2.1 2.4 0.3 0.4 0.7 0.8 1.6 1.7 1.3 1.6 1.9 2.4 1.7 2.1 1.3 1.8 1.2 1.5 0.7 0.8 3.5 4.7 3.5 4.9 0.6 0.9 0.1 0.2 0.2 0.7-0.1 1.1-0.1 1.3v0.9 0.9l-0.5 5.4-0.8 5.7-0.8 5.5-1 5.4-0.8 4-0.9 3.9-1.4 5.8-1.3 4.5-1.3 4.2-1.5 4.5-1.9 4.9-1.7 4.4-2.2 4.8-2.5 5.5-1.4 2.6-2.6 4.8-1.2 2.2-3.1 5.1-2.5 3.8-2.4 3.7-2 2.7-3.6 4.8-2.2 2.7-2.4 3-0.2 0.1h-0.1v-0.1l0.3-6v-3.9l0.1-1.7v-4.1-6-0.8l-0.1-2.3v-1.9l-0.2-5.6-0.3-5.6-0.4-5.9-0.5-6-0.6-4.4-0.6-4.5-0.6-3.9-1-5.6-0.6-3-1.2-5.8-0.7-2.7-1.5-5.7-1.2-3.9-1.6-5-1.8-4.7-1-2.6-1.1-2.4-2.5-5.5-2.7-5.1-2.9-5.1-2.2-3.5-1.2-1.7-1.6-2.2-2.4-3.2-2.7-3.3-0.6-0.7-1.4-1.6-1.4-1.5-0.6-0.7-1.1-1.1-2.9-2.7-4.6-3.9-2.8-2.2-2.9-2-3.7-2.4-1.5-0.9-2.4-1.4-1.4-0.8-0.6-0.3-2.3-1-0.8-0.4-1.6-0.7-1.9-0.8-3.1-1.2-2.6-1-3.2-1-2.5-0.7-5.8-1.2-5.4-0.9-3.3-0.4-2.3-0.1-2.1-0.2h-3.2-0.6l-1.6 0.1-3.7 0.4-1.9 0.2-3.4 0.6-1.7 0.4-2.4 0.7-3 0.9-4 1.6-3.1 1.4-1.2 0.6-1.8 1.1-0.8 0.5-3.3 2.2-2.8 2.4-1.4 1.2-2.2 2.4-1.7 1.9-1 1.4-0.4 0.7-0.8 1.2-1.4 2.6-0.9 1.9-0.7 2.1-0.6 2-0.2 0.9-0.5 2.8-0.2 2.4 0.1 2.8 0.1 1.5 0.6 3v0.1h0.1l0.1-0.1 0.9-1.9 0.3-0.4 0.2-0.5 0.3-0.5 0.3-0.7 0.6-2.6 0.6-1.8 0.5-1.8 1.1-2.7 0.7-1.5 0.4-0.8 0.6-1.2 0.8-1.2 2-3 1.8-2.2 0.6-0.8 1.1-1 1.9-1.7 2.7-2.2 1.4-0.9 1.3-0.9 1.4-0.7 2.5-1.2 1.4-0.6 2.8-1.1 1.4-0.4 2.7-0.6 1.4-0.3 0.8-0.1 2.8-0.4 2.5-0.2 4.1-0.1 2.8 0.1 2.2 0.2 4.1 0.5 4 0.8 2.7 0.7 3 1 3.1 1.1 3 1.2 1.9 0.9 3.5 1.8 1.3 0.7 2.7 1.6 3.1 2 2.7 1.8 1.8 1.3 2.8 2.3 1.3 1.2 1.1 0.9 2.1 2 3.1 3.2 1.4 1.7 0.4 0.3 0.1 0.3 1.1 1.3 2.2 2.7 1.1 1.6 1.1 1.7 0.3 0.5 1 1.4 1.1 1.7 0.4 0.5 0.5 1 0.3 0.5 0.7 1.3 0.4 0.4 0.2 0.6 1 1.8 0.3 0.3 0.1 0.3 0.1 0.2 0.7 1.3 1.8 3.8 0.3 0.7 0.3 0.6 1.5 3.3 0.2 0.5 0.2 0.6 0.6 1.4 0.6 1.5 0.4 1.2 0.9 2.4 0.4 1.2 0.5 1.6 0.1 0.5 0.1 0.3 0.1 0.5 0.4 1 0.1 0.5 0.3 0.9 0.5 2 0.2 1 0.3 1.3 0.5 1.5 0.6 2.1 0.1 0.5 0.3 1.4 0.3 0.8 0.8 3.8 0.2 0.7 0.1 0.4 0.2 1.5 0.3 1.8 0.4 2.9 0.3 1.8 0.3 2v0.6l0.1 0.6 0.3 1.7 0.2 2.7 0.2 1.6 0.2 1.4 0.2 2.3 0.1 1.7v0.5l0.1 1 0.1 0.7v1.7l0.1 0.6v0.9l0.1 0.6v0.5l0.1 1.8v2.2l0.1 1.3v0.9 1.8 1.4 2.7 0.7l-0.1 1-0.1 0.2-0.1 0.1-0.1 0.1h-0.5l-0.9-0.1h-0.3l-0.1 0.1v0.1 0.7 1.9l-0.3 3.5-0.3 2.6-0.5 3.4-0.5 2.9-1.2 5.7-1.5 5.8v0.3 0.1h0.1l0.2 0.1 0.3 0.1 2.8 0.8 0.2 0.2v0.1l-0.1 0.5-0.3 0.7-1.6 5.4-0.3 0.5-0.2 0.7-0.7 2.4-0.2 0.7-0.2 0.6-0.5 1.4-0.3 0.7v0.2l-0.1 0.6v0.2h0.1l0.2 0.2 1.5 0.5 1.2 0.4 2.1 0.7 0.3 0.1 0.1 0.2 0.2 0.5 0.1 0.6v0.4 0.5l-0.2 0.6-0.7 2.8-0.7 1.8-0.6 1.3-0.9 1.4-0.4 0.4-0.4 0.1-0.6 0.1-0.3-0.1-0.9-0.3-0.9-0.4-0.9-0.3-0.7-0.2-4.3-1.6-5.6-2-4.1-1.4-2.1-0.7-0.3-0.2-0.3-0.4-0.3-0.6v-0.3l0.3-2 0.3-1.3 0.6-1.7 0.5-1.1 0.4-0.8 0.7-1.2 0.5-0.8 0.6-0.6 0.2-0.1h0.3l0.9 0.3 1.9 0.7 1.8 0.7 0.4 0.1 0.1-0.1h0.1l0.2-0.5 0.5-1.4 2-5.7 0.3-0.7 1.1-3.9 0.1-0.6 0.2-0.9 0.2-0.2h0.1l0.1-0.1 2.5 0.8 0.3 0.1h0.2v-0.1l0.1-0.3 0.5-1.2 0.8-2.7 0.6-2.1 0.1-0.6 0.1-1.2 0.2-0.9 0.4-1.6 0.3-1.3 0.2-1.5 0.2-1.5 0.3-2v-0.8l0.2-1.2 0.3-2.8 0.1-2.1 0.1-1.3v-0.7l-0.1-0.3h-0.1l-0.1-0.1h-0.8-0.9-0.2l-0.2-0.2-0.1-0.2v-0.5l0.1-0.8 0.1-2.5 0.1-1.3v-1.3-1.1-1.4-0.4-2.1l-0.1-1.1-0.1-2.6-0.1-2.7-0.1-0.9v-0.8l-0.1-0.6-0.1-1.2-0.1-0.7v-0.4-0.8l-0.2-0.5-0.3-3.4-0.2-2.5-0.2-0.8v-0.4l-0.5-4.4-0.1-0.8-0.3-1.9-0.7-4.3-0.8-4-0.1-1-0.4-1-0.2-0.8-0.1-0.5-0.1-0.4-0.1-0.5-0.2-0.6-0.3-1-0.2-0.9-0.2-0.6-0.2-1.5-0.4-1.1v-0.3l-0.1-0.4-0.2-0.5-0.2-1.1-0.2-0.5-0.1-0.6-0.2-0.6-0.3-0.9-0.4-1.2-0.3-0.6-0.4-1.4-0.2-0.7-0.3-0.7-1.4-3.7-0.4-1-1.1-2.7-2.6-5.5-1-1.8-0.6-1-0.8-1.4-2.2-3.5-2.6-3.9-2.2-2.9-1.4-1.8-1.4-1.6-3.6-3.9-2.3-2.1-3.6-3.1-1.8-1.4-3-2.1-3.9-2.6-1.6-0.9-4.4-2.5-4.5-2-2.8-1.1-3.4-1.1-2.1-0.7-3.3-0.8-3.9-0.7-0.7-0.1-1.8-0.2h-0.6l-0.9-0.1-1.3-0.1-2.5-0.1h-1.4l-2.6 0.1-4.1 0.4-0.9 0.1-0.8 0.2-2 0.4-1.6 0.5-2.1 0.6-3.6 1.5-2.7 1.4-1.6 1-0.8 0.5-2.9 2.4-0.5 0.5-0.9 0.8-0.5 0.5-0.5 0.6-0.4 0.5-1 1.1-1.1 1.5-0.5 0.8-1.9 3.2-1.2 2.4-1.4 3.6v0.2h0.1 0.1 0.1l0.4-0.5 0.3-0.3 0.5-0.2 0.4-0.5 0.4-0.2 0.5-0.2v-0.1l0.2-0.3 0.4-0.2 0.3-0.4 2.3-2.4 0.7-0.7 1.3-1 2-1.5 1.5-1 3.1-1.4 1.1-0.6 0.7-0.3 1.3-0.4 3.3-1 3-0.6 2.4-0.3h1.1l0.7-0.2 1 0.1 0.7-0.1h2.5 0.5l1.1 0.1 2.1 0.1 3.7 0.5 2.8 0.6 3.2 0.8 2.1 0.7 2 0.7 1.9 0.7 2 0.9 2.9 1.4 3 1.6 3.8 2.4 1.5 1.1 2.9 2.2 1.7 1.5 2.3 2.1 2.8 2.7 2.1 2.4 1.8 2.1 2.1 2.6 2.2 3.1 2 3.1 1.7 2.9 1.4 2.7 2.6 5.4 2.2 5.4 1 3 1.3 3.9 1.5 5.8 0.5 2.3 0.9 4.6 0.6 4.2 0.4 3.1 0.2 2 0.3 6 0.1 2.6v6l-0.1 0.7-0.1 1.5-0.4 5.7-0.3 2.5-0.8 5.9-0.7 3.9-1.2 5.4-1.3 5-0.8 2.8-1.8 5.7-1.7 5.1-2 5.1-2.2 5.4-2.4 5.4-2.6 5.3-2.7 5.2-2.9 5.3-0.4 0.5-0.1 0.3-1.6 2.8-3 5.1-3.2 5-0.8 1.3-0.6 0.9-1 1.5-3.3 4.8-3.4 5-0.3 0.5-0.3 0.4-0.2 0.2-1.9 0.5-4.8 1.3-3.2 0.7-4.3 0.8-2.9 0.5-2.9 0.5-4.2 0.6-3.8 0.5-4.4 0.4-3.3 0.2z" class="b" fill-rule="evenodd"/></svg>